STARTFONT 2.1
FONT -Linotype-Times-Bold-I-Normal--14-140-72-72-P-73-ISO8859-1
SIZE 14 72 72
FONTBOUNDINGBOX 17 18 -3 -4

STARTPROPERTIES 22
FONTNAME_REGISTRY "-"
FOUNDRY "Linotype"
FAMILY_NAME "Times"
WEIGHT_NAME "Bold"
SLANT "I"
SETWIDTH_NAME "Normal"
ADD_STYLE_NAME ""
PIXEL_SIZE 14
POINT_SIZE 140
RESOLUTION_X 72
RESOLUTION_Y 72
SPACING "P"
CHARSET_REGISTRY "ISO8859"
CHARSET_ENCODING "1"
FULL_NAME "Times-BoldItalic"
AVERAGE_WIDTH 73
WEIGHT 10
X_HEIGHT 7
QUAD_WIDTH 8
DEFAULT_CHAR 32
FONT_DESCENT 3
FONT_ASCENT 12
ENDPROPERTIES

CHARS 190

STARTCHAR space
ENCODING 32
SWIDTH 250 0
DWIDTH 4 0
BBX 1 1 0 0
BITMAP
00
ENDCHAR

STARTCHAR exclam
ENCODING 33
SWIDTH 389 0
DWIDTH 5 0
BBX 4 10 1 0
BITMAP
30
30
30
20
20
20
40
00
C0
C0
ENDCHAR

STARTCHAR quotedbl
ENCODING 34
SWIDTH 555 0
DWIDTH 8 0
BBX 6 5 2 5
BITMAP
CC
DC
D8
98
90
ENDCHAR

STARTCHAR numbersign
ENCODING 35
SWIDTH 500 0
DWIDTH 7 0
BBX 7 9 0 0
BITMAP
34
24
7E
28
28
FC
48
48
50
ENDCHAR

STARTCHAR dollar
ENCODING 36
SWIDTH 500 0
DWIDTH 7 0
BBX 7 12 0 -1
BITMAP
04
3C
2A
6A
38
38
1C
9C
A4
EC
38
20
ENDCHAR

STARTCHAR percent
ENCODING 37
SWIDTH 833 0
DWIDTH 12 0
BBX 11 10 0 0
BITMAP
3880
6F00
CB00
DA00
7400
04E0
09A0
1B20
1340
2180
ENDCHAR

STARTCHAR ampersand
ENCODING 38
SWIDTH 778 0
DWIDTH 11 0
BBX 10 10 1 0
BITMAP
0E00
1B00
1A00
1C00
3980
6D80
CD00
CE00
C640
7B80
ENDCHAR

STARTCHAR quoteright
ENCODING 39
SWIDTH 333 0
DWIDTH 5 0
BBX 3 4 1 6
BITMAP
60
60
60
C0
ENDCHAR

STARTCHAR parenleft
ENCODING 40
SWIDTH 333 0
DWIDTH 5 0
BBX 5 13 0 -3
BITMAP
18
30
60
40
C0
C0
80
80
80
80
C0
40
40
ENDCHAR

STARTCHAR parenright
ENCODING 41
SWIDTH 333 0
DWIDTH 5 0
BBX 4 13 0 -3
BITMAP
20
30
10
10
10
10
10
10
30
30
20
40
80
ENDCHAR

STARTCHAR asterisk
ENCODING 42
SWIDTH 500 0
DWIDTH 7 0
BBX 5 6 1 3
BITMAP
20
F8
20
F8
20
20
ENDCHAR

STARTCHAR plus
ENCODING 43
SWIDTH 570 0
DWIDTH 8 0
BBX 7 7 0 0
BITMAP
10
10
10
FE
10
10
10
ENDCHAR

STARTCHAR comma
ENCODING 44
SWIDTH 250 0
DWIDTH 4 0
BBX 3 4 0 -3
BITMAP
60
60
60
C0
ENDCHAR

STARTCHAR minus
ENCODING 45
SWIDTH 606 0
DWIDTH 8 0
BBX 7 1 1 3
BITMAP
FE
ENDCHAR

STARTCHAR period
ENCODING 46
SWIDTH 250 0
DWIDTH 4 0
BBX 2 2 0 0
BITMAP
C0
C0
ENDCHAR

STARTCHAR slash
ENCODING 47
SWIDTH 278 0
DWIDTH 4 0
BBX 4 9 0 0
BITMAP
10
10
20
20
20
40
40
C0
80
ENDCHAR

STARTCHAR zero
ENCODING 48
SWIDTH 500 0
DWIDTH 7 0
BBX 6 10 0 0
BITMAP
18
34
64
64
CC
CC
CC
D8
98
70
ENDCHAR

STARTCHAR one
ENCODING 49
SWIDTH 500 0
DWIDTH 7 0
BBX 6 10 0 0
BITMAP
0C
38
18
18
18
30
30
30
70
F8
ENDCHAR

STARTCHAR two
ENCODING 50
SWIDTH 500 0
DWIDTH 7 0
BBX 7 10 0 0
BITMAP
3C
4C
06
0C
0C
18
30
24
7C
F8
ENDCHAR

STARTCHAR three
ENCODING 51
SWIDTH 500 0
DWIDTH 7 0
BBX 6 10 0 0
BITMAP
3C
4C
04
0C
38
0C
0C
0C
C8
F0
ENDCHAR

STARTCHAR four
ENCODING 52
SWIDTH 500 0
DWIDTH 7 0
BBX 7 10 0 0
BITMAP
06
06
0E
14
2C
6C
CC
FE
18
18
ENDCHAR

STARTCHAR five
ENCODING 53
SWIDTH 500 0
DWIDTH 7 0
BBX 7 10 0 0
BITMAP
1E
3E
30
78
1C
0C
0C
0C
C8
F0
ENDCHAR

STARTCHAR six
ENCODING 54
SWIDTH 500 0
DWIDTH 7 0
BBX 7 10 0 0
BITMAP
06
18
30
60
78
CC
CC
CC
D8
70
ENDCHAR

STARTCHAR seven
ENCODING 55
SWIDTH 500 0
DWIDTH 7 0
BBX 7 10 1 0
BITMAP
7E
7C
88
08
10
30
20
60
40
C0
ENDCHAR

STARTCHAR eight
ENCODING 56
SWIDTH 500 0
DWIDTH 7 0
BBX 7 10 0 0
BITMAP
1C
24
66
34
38
58
CC
8C
C8
70
ENDCHAR

STARTCHAR nine
ENCODING 57
SWIDTH 500 0
DWIDTH 7 0
BBX 7 10 0 0
BITMAP
1C
36
66
66
6E
3C
0C
18
30
C0
ENDCHAR

STARTCHAR colon
ENCODING 58
SWIDTH 333 0
DWIDTH 5 0
BBX 3 7 1 0
BITMAP
60
60
00
00
00
C0
C0
ENDCHAR

STARTCHAR semicolon
ENCODING 59
SWIDTH 333 0
DWIDTH 5 0
BBX 4 10 0 -3
BITMAP
30
30
00
00
60
60
60
20
40
80
ENDCHAR

STARTCHAR less
ENCODING 60
SWIDTH 570 0
DWIDTH 8 0
BBX 7 6 0 0
BITMAP
06
3E
F0
F0
3E
06
ENDCHAR

STARTCHAR equal
ENCODING 61
SWIDTH 570 0
DWIDTH 8 0
BBX 7 5 0 1
BITMAP
FE
00
00
00
FE
ENDCHAR

STARTCHAR greater
ENCODING 62
SWIDTH 570 0
DWIDTH 8 0
BBX 7 6 0 0
BITMAP
C0
78
0E
0E
78
C0
ENDCHAR

STARTCHAR question
ENCODING 63
SWIDTH 500 0
DWIDTH 7 0
BBX 5 10 1 0
BITMAP
78
48
48
18
30
40
40
00
C0
C0
ENDCHAR

STARTCHAR at
ENCODING 64
SWIDTH 832 0
DWIDTH 12 0
BBX 12 13 0 -3
BITMAP
0F80
1860
3020
67D0
CC90
CD90
D990
D990
D9A0
4FC0
6000
3080
0F00
ENDCHAR

STARTCHAR A
ENCODING 65
SWIDTH 667 0
DWIDTH 9 0
BBX 9 10 0 0
BITMAP
0200
0600
0600
0E00
0B00
1300
3F00
2300
4300
E780
ENDCHAR

STARTCHAR B
ENCODING 66
SWIDTH 667 0
DWIDTH 9 0
BBX 9 10 0 0
BITMAP
3F00
1980
1980
3380
3E00
3300
3300
6300
6700
FE00
ENDCHAR

STARTCHAR C
ENCODING 67
SWIDTH 667 0
DWIDTH 9 0
BBX 9 10 0 0
BITMAP
1F80
3980
7080
6080
C000
C000
C000
C100
6200
3C00
ENDCHAR

STARTCHAR D
ENCODING 68
SWIDTH 722 0
DWIDTH 10 0
BBX 10 10 0 0
BITMAP
3F00
19C0
18C0
30C0
30C0
30C0
31C0
6180
6300
FC00
ENDCHAR

STARTCHAR E
ENCODING 69
SWIDTH 667 0
DWIDTH 9 0
BBX 9 10 0 0
BITMAP
3F80
1880
1880
3300
3E00
3200
3200
6180
6100
FF00
ENDCHAR

STARTCHAR F
ENCODING 70
SWIDTH 667 0
DWIDTH 9 0
BBX 9 10 0 0
BITMAP
3F80
1880
1880
3300
3E00
3200
3200
6000
6000
F000
ENDCHAR

STARTCHAR G
ENCODING 71
SWIDTH 722 0
DWIDTH 10 0
BBX 10 10 0 0
BITMAP
0F80
3980
6080
6080
C000
C7C0
C300
C300
6300
3E00
ENDCHAR

STARTCHAR H
ENCODING 72
SWIDTH 778 0
DWIDTH 11 0
BBX 11 10 0 0
BITMAP
3DE0
18C0
18C0
30C0
3FC0
3180
3180
6180
6380
F780
ENDCHAR

STARTCHAR I
ENCODING 73
SWIDTH 389 0
DWIDTH 5 0
BBX 6 10 0 0
BITMAP
3C
18
18
30
30
30
30
60
60
F0
ENDCHAR

STARTCHAR J
ENCODING 74
SWIDTH 500 0
DWIDTH 7 0
BBX 8 11 0 -1
BITMAP
0F
06
04
0C
0C
0C
18
18
18
F0
F0
ENDCHAR

STARTCHAR K
ENCODING 75
SWIDTH 667 0
DWIDTH 9 0
BBX 10 10 0 0
BITMAP
3DC0
1880
1B00
3600
3C00
3400
3600
6600
6300
F780
ENDCHAR

STARTCHAR L
ENCODING 76
SWIDTH 611 0
DWIDTH 9 0
BBX 8 10 0 0
BITMAP
3C
18
18
30
30
30
30
61
61
FF
ENDCHAR

STARTCHAR M
ENCODING 77
SWIDTH 889 0
DWIDTH 12 0
BBX 13 10 0 0
BITMAP
3838
1870
3870
2CA0
2D60
4D60
4E60
4E40
4CC0
E9E0
ENDCHAR

STARTCHAR N
ENCODING 78
SWIDTH 722 0
DWIDTH 10 0
BBX 11 10 0 0
BITMAP
38E0
1840
2C40
2C40
2680
6680
4680
4300
C300
E100
ENDCHAR

STARTCHAR O
ENCODING 79
SWIDTH 722 0
DWIDTH 10 0
BBX 9 10 0 0
BITMAP
0F00
3180
7180
6180
E180
C180
C300
C300
C600
7800
ENDCHAR

STARTCHAR P
ENCODING 80
SWIDTH 611 0
DWIDTH 9 0
BBX 9 10 0 0
BITMAP
3F00
1980
1980
3380
3E00
3000
3000
6000
6000
F000
ENDCHAR

STARTCHAR Q
ENCODING 81
SWIDTH 722 0
DWIDTH 10 0
BBX 9 13 0 -3
BITMAP
0F00
3180
3180
6180
E180
C180
C300
C300
C600
7800
2000
7880
FF00
ENDCHAR

STARTCHAR R
ENCODING 82
SWIDTH 667 0
DWIDTH 9 0
BBX 9 10 0 0
BITMAP
3F00
1980
1980
3180
3300
3E00
3600
6600
6300
F380
ENDCHAR

STARTCHAR S
ENCODING 83
SWIDTH 556 0
DWIDTH 8 0
BBX 7 10 0 0
BITMAP
3E
22
62
30
38
1C
8C
84
CC
F8
ENDCHAR

STARTCHAR T
ENCODING 84
SWIDTH 611 0
DWIDTH 9 0
BBX 8 10 1 0
BITMAP
FF
D9
99
18
30
30
30
30
60
F8
ENDCHAR

STARTCHAR U
ENCODING 85
SWIDTH 722 0
DWIDTH 10 0
BBX 9 10 1 0
BITMAP
F980
7080
6100
6100
6100
C200
C200
C200
C400
7800
ENDCHAR

STARTCHAR V
ENCODING 86
SWIDTH 667 0
DWIDTH 9 0
BBX 9 10 1 0
BITMAP
F380
6100
6100
6200
6400
3400
3800
3800
3000
2000
ENDCHAR

STARTCHAR W
ENCODING 87
SWIDTH 889 0
DWIDTH 12 0
BBX 12 10 1 0
BITMAP
F730
6320
6720
6740
6B40
3B80
3380
3300
2300
2200
ENDCHAR

STARTCHAR X
ENCODING 88
SWIDTH 667 0
DWIDTH 9 0
BBX 10 10 0 0
BITMAP
3DC0
1880
1B00
0E00
0C00
0C00
1400
2600
4600
EF00
ENDCHAR

STARTCHAR Y
ENCODING 89
SWIDTH 611 0
DWIDTH 9 0
BBX 8 10 1 0
BITMAP
F7
62
64
3C
38
30
30
30
60
F0
ENDCHAR

STARTCHAR Z
ENCODING 90
SWIDTH 611 0
DWIDTH 9 0
BBX 8 10 0 0
BITMAP
3F
63
46
0C
1C
18
30
61
62
FE
ENDCHAR

STARTCHAR bracketleft
ENCODING 91
SWIDTH 333 0
DWIDTH 5 0
BBX 6 13 0 -3
BITMAP
1C
30
30
20
20
20
60
60
40
40
C0
C0
E0
ENDCHAR

STARTCHAR backslash
ENCODING 92
SWIDTH 278 0
DWIDTH 4 0
BBX 7 10 0 0
BITMAP
C0
40
60
20
30
10
18
08
0C
06
ENDCHAR

STARTCHAR bracketright
ENCODING 93
SWIDTH 333 0
DWIDTH 5 0
BBX 6 13 0 -3
BITMAP
3C
08
08
18
18
10
10
10
30
30
20
20
E0
ENDCHAR

STARTCHAR asciicircum
ENCODING 94
SWIDTH 570 0
DWIDTH 8 0
BBX 7 6 0 4
BITMAP
10
38
28
6C
44
C6
ENDCHAR

STARTCHAR underscore
ENCODING 95
SWIDTH 500 0
DWIDTH 7 0
BBX 7 1 0 -3
BITMAP
FE
ENDCHAR

STARTCHAR quoteleft
ENCODING 96
SWIDTH 333 0
DWIDTH 5 0
BBX 3 4 2 6
BITMAP
60
80
C0
C0
ENDCHAR

STARTCHAR a
ENCODING 97
SWIDTH 500 0
DWIDTH 7 0
BBX 7 7 0 0
BITMAP
3E
6C
6C
CC
C8
DE
EC
ENDCHAR

STARTCHAR b
ENCODING 98
SWIDTH 500 0
DWIDTH 7 0
BBX 6 10 0 0
BITMAP
70
30
20
7C
64
64
4C
CC
D8
F0
ENDCHAR

STARTCHAR c
ENCODING 99
SWIDTH 444 0
DWIDTH 6 0
BBX 6 7 0 0
BITMAP
38
6C
40
C0
C0
C8
70
ENDCHAR

STARTCHAR d
ENCODING 100
SWIDTH 500 0
DWIDTH 7 0
BBX 7 10 0 0
BITMAP
06
06
06
3E
6C
6C
CC
CC
FA
EC
ENDCHAR

STARTCHAR e
ENCODING 101
SWIDTH 444 0
DWIDTH 6 0
BBX 5 7 0 0
BITMAP
38
68
58
D0
E0
C8
70
ENDCHAR

STARTCHAR f
ENCODING 102
SWIDTH 333 0
DWIDTH 5 0
BBX 8 13 -1 -3
BITMAP
03
05
0C
1E
08
08
18
18
18
10
30
A0
E0
ENDCHAR

STARTCHAR g
ENCODING 103
SWIDTH 500 0
DWIDTH 7 0
BBX 7 10 0 -3
BITMAP
3E
24
66
6C
38
40
78
8C
8C
78
ENDCHAR

STARTCHAR h
ENCODING 104
SWIDTH 556 0
DWIDTH 8 0
BBX 7 10 0 0
BITMAP
70
30
30
2E
76
64
6C
6C
CE
CC
ENDCHAR

STARTCHAR i
ENCODING 105
SWIDTH 278 0
DWIDTH 4 0
BBX 4 10 0 0
BITMAP
20
30
00
E0
60
40
40
C0
F0
E0
ENDCHAR

STARTCHAR j
ENCODING 106
SWIDTH 278 0
DWIDTH 4 0
BBX 6 13 -1 -3
BITMAP
04
04
00
1C
0C
08
18
18
18
10
30
B0
E0
ENDCHAR

STARTCHAR k
ENCODING 107
SWIDTH 500 0
DWIDTH 7 0
BBX 7 10 0 0
BITMAP
70
30
30
2E
64
78
70
58
DC
CC
ENDCHAR

STARTCHAR l
ENCODING 108
SWIDTH 278 0
DWIDTH 4 0
BBX 4 10 0 0
BITMAP
70
30
20
60
60
60
40
C0
D0
E0
ENDCHAR

STARTCHAR m
ENCODING 109
SWIDTH 778 0
DWIDTH 11 0
BBX 10 7 0 0
BITMAP
6DC0
76C0
6480
6C80
4D80
C9C0
D980
ENDCHAR

STARTCHAR n
ENCODING 110
SWIDTH 556 0
DWIDTH 8 0
BBX 7 7 0 0
BITMAP
6C
76
64
6C
4C
CA
CC
ENDCHAR

STARTCHAR o
ENCODING 111
SWIDTH 500 0
DWIDTH 7 0
BBX 6 7 0 0
BITMAP
38
6C
4C
CC
CC
D8
70
ENDCHAR

STARTCHAR p
ENCODING 112
SWIDTH 500 0
DWIDTH 7 0
BBX 8 10 0 -3
BITMAP
3E
1F
33
33
36
24
78
60
60
E0
ENDCHAR

STARTCHAR q
ENCODING 113
SWIDTH 500 0
DWIDTH 7 0
BBX 7 10 0 -3
BITMAP
3E
6C
6C
CC
C8
D8
F8
18
30
78
ENDCHAR

STARTCHAR r
ENCODING 114
SWIDTH 389 0
DWIDTH 5 0
BBX 6 7 0 0
BITMAP
6C
7C
60
60
40
C0
C0
ENDCHAR

STARTCHAR s
ENCODING 115
SWIDTH 389 0
DWIDTH 5 0
BBX 5 7 0 0
BITMAP
78
48
60
70
30
90
F0
ENDCHAR

STARTCHAR t
ENCODING 116
SWIDTH 278 0
DWIDTH 4 0
BBX 4 9 0 0
BITMAP
30
20
70
60
60
40
C0
D0
E0
ENDCHAR

STARTCHAR u
ENCODING 117
SWIDTH 556 0
DWIDTH 8 0
BBX 7 7 1 0
BITMAP
E6
64
4C
4C
DC
DE
FC
ENDCHAR

STARTCHAR v
ENCODING 118
SWIDTH 444 0
DWIDTH 6 0
BBX 5 7 1 0
BITMAP
C8
48
68
68
70
60
40
ENDCHAR

STARTCHAR w
ENCODING 119
SWIDTH 667 0
DWIDTH 9 0
BBX 8 7 1 0
BITMAP
C9
49
79
7B
6E
6C
48
ENDCHAR

STARTCHAR x
ENCODING 120
SWIDTH 500 0
DWIDTH 7 0
BBX 7 7 0 0
BITMAP
76
3E
18
10
30
FA
DC
ENDCHAR

STARTCHAR y
ENCODING 121
SWIDTH 444 0
DWIDTH 6 0
BBX 7 10 0 -3
BITMAP
36
32
34
14
1C
18
18
10
90
E0
ENDCHAR

STARTCHAR z
ENCODING 122
SWIDTH 389 0
DWIDTH 5 0
BBX 6 7 0 0
BITMAP
7C
48
10
20
60
6C
B8
ENDCHAR

STARTCHAR braceleft
ENCODING 123
SWIDTH 348 0
DWIDTH 5 0
BBX 5 13 0 -3
BITMAP
18
30
20
20
20
60
40
C0
40
40
C0
80
C0
ENDCHAR

STARTCHAR bar
ENCODING 124
SWIDTH 220 0
DWIDTH 3 0
BBX 1 9 1 0
BITMAP
80
80
80
80
80
80
80
80
80
ENDCHAR

STARTCHAR braceright
ENCODING 125
SWIDTH 348 0
DWIDTH 5 0
BBX 5 13 0 -3
BITMAP
18
08
18
18
10
10
18
30
20
20
60
60
C0
ENDCHAR

STARTCHAR asciitilde
ENCODING 126
SWIDTH 570 0
DWIDTH 8 0
BBX 7 2 0 4
BITMAP
72
9C
ENDCHAR

STARTCHAR exclamdown
ENCODING 161
SWIDTH 389 0
DWIDTH 5 0
BBX 4 9 0 -2
BITMAP
30
30
00
20
20
40
40
C0
C0
ENDCHAR

STARTCHAR cent
ENCODING 162
SWIDTH 500 0
DWIDTH 7 0
BBX 6 9 1 1
BITMAP
08
38
68
4C
D0
D0
E8
70
40
ENDCHAR

STARTCHAR sterling
ENCODING 163
SWIDTH 500 0
DWIDTH 7 0
BBX 8 10 0 0
BITMAP
0E
1B
18
18
7C
30
30
F2
A2
DC
ENDCHAR

STARTCHAR currency
ENCODING 164
SWIDTH 500 0
DWIDTH 7 0
BBX 7 8 0 1
BITMAP
46
FE
6C
44
44
6C
FE
44
ENDCHAR

STARTCHAR yen
ENCODING 165
SWIDTH 500 0
DWIDTH 7 0
BBX 8 10 0 0
BITMAP
F7
62
64
3C
38
FC
30
F8
60
F0
ENDCHAR

STARTCHAR brokenbar
ENCODING 166
SWIDTH 220 0
DWIDTH 3 0
BBX 1 10 1 0
BITMAP
80
80
80
80
00
00
80
80
80
80
ENDCHAR

STARTCHAR section
ENCODING 167
SWIDTH 500 0
DWIDTH 7 0
BBX 6 13 0 -3
BITMAP
18
24
2C
30
70
D8
CC
64
38
10
D0
90
70
ENDCHAR

STARTCHAR dieresis
ENCODING 168
SWIDTH 333 0
DWIDTH 5 0
BBX 5 2 1 7
BITMAP
D8
D8
ENDCHAR

STARTCHAR copyright
ENCODING 169
SWIDTH 747 0
DWIDTH 10 0
BBX 10 10 0 0
BITMAP
1E00
6180
4E80
9240
9040
9040
9240
4C80
6180
1E00
ENDCHAR

STARTCHAR ordfeminine
ENCODING 170
SWIDTH 266 0
DWIDTH 4 0
BBX 4 6 0 4
BITMAP
70
50
B0
F0
00
E0
ENDCHAR

STARTCHAR guillemotleft
ENCODING 171
SWIDTH 500 0
DWIDTH 7 0
BBX 6 5 0 0
BITMAP
34
68
D8
48
28
ENDCHAR

STARTCHAR logicalnot
ENCODING 172
SWIDTH 606 0
DWIDTH 8 0
BBX 7 4 1 2
BITMAP
FE
02
02
02
ENDCHAR

STARTCHAR hyphen
ENCODING 173
SWIDTH 333 0
DWIDTH 5 0
BBX 4 2 0 2
BITMAP
F0
E0
ENDCHAR

STARTCHAR registered
ENCODING 174
SWIDTH 747 0
DWIDTH 10 0
BBX 10 10 0 0
BITMAP
1E00
6180
5E80
8A40
8A40
8E40
8A40
5F80
6180
1E00
ENDCHAR

STARTCHAR macron
ENCODING 175
SWIDTH 333 0
DWIDTH 5 0
BBX 5 1 1 8
BITMAP
F8
ENDCHAR

STARTCHAR degree
ENCODING 176
SWIDTH 400 0
DWIDTH 7 0
BBX 5 5 1 5
BITMAP
70
88
88
88
70
ENDCHAR

STARTCHAR plusminus
ENCODING 177
SWIDTH 570 0
DWIDTH 8 0
BBX 7 10 0 0
BITMAP
10
10
10
FE
10
10
10
10
00
FE
ENDCHAR

STARTCHAR twosuperior
ENCODING 178
SWIDTH 300 0
DWIDTH 4 0
BBX 4 6 -3 4
BITMAP
60
50
10
20
70
E0
ENDCHAR

STARTCHAR threesuperior
ENCODING 179
SWIDTH 300 0
DWIDTH 4 0
BBX 4 6 -3 4
BITMAP
70
10
60
20
20
E0
ENDCHAR

STARTCHAR acute
ENCODING 180
SWIDTH 333 0
DWIDTH 5 0
BBX 3 3 2 7
BITMAP
20
60
80
ENDCHAR

STARTCHAR mu
ENCODING 181
SWIDTH 576 0
DWIDTH 8 0
BBX 8 10 0 -3
BITMAP
33
32
32
26
26
6F
76
40
80
80
ENDCHAR

STARTCHAR paragraph
ENCODING 182
SWIDTH 500 0
DWIDTH 7 0
BBX 7 13 1 -3
BITMAP
3E
74
F4
FC
E8
E8
28
78
50
50
50
70
A0
ENDCHAR

STARTCHAR periodcentered
ENCODING 183
SWIDTH 250 0
DWIDTH 7 0
BBX 2 2 3 3
BITMAP
C0
C0
ENDCHAR

STARTCHAR cedilla
ENCODING 184
SWIDTH 333 0
DWIDTH 5 0
BBX 3 4 0 -3
BITMAP
40
60
20
E0
ENDCHAR

STARTCHAR onesuperior
ENCODING 185
SWIDTH 300 0
DWIDTH 4 0
BBX 3 6 -3 4
BITMAP
60
20
20
40
40
E0
ENDCHAR

STARTCHAR ordmasculine
ENCODING 186
SWIDTH 300 0
DWIDTH 4 0
BBX 4 6 0 4
BITMAP
30
50
D0
B0
60
E0
ENDCHAR

STARTCHAR guillemotright
ENCODING 187
SWIDTH 500 0
DWIDTH 7 0
BBX 6 6 0 0
BITMAP
48
68
2C
7C
58
90
ENDCHAR

STARTCHAR onequarter
ENCODING 188
SWIDTH 750 0
DWIDTH 11 0
BBX 10 10 0 0
BITMAP
6080
2100
2300
4200
4440
E4C0
0980
1B80
13C0
2080
ENDCHAR

STARTCHAR onehalf
ENCODING 189
SWIDTH 750 0
DWIDTH 11 0
BBX 10 10 0 0
BITMAP
6080
2100
2300
4200
4580
E540
0840
1880
11C0
2380
ENDCHAR

STARTCHAR threequarters
ENCODING 190
SWIDTH 750 0
DWIDTH 11 0
BBX 10 10 0 0
BITMAP
7080
1100
6300
2200
2440
E4C0
0980
1B80
13C0
2080
ENDCHAR

STARTCHAR questiondown
ENCODING 191
SWIDTH 500 0
DWIDTH 7 0
BBX 5 10 0 -3
BITMAP
18
08
00
10
10
20
C0
D8
C8
70
ENDCHAR

STARTCHAR Agrave
ENCODING 192
SWIDTH 667 0
DWIDTH 9 0
BBX 9 14 0 0
BITMAP
0400
0600
0100
0000
0200
0600
0600
0E00
0B00
1300
3F00
2300
4300
E780
ENDCHAR

STARTCHAR Aacute
ENCODING 193
SWIDTH 667 0
DWIDTH 9 0
BBX 9 14 0 0
BITMAP
0080
0180
0200
0000
0200
0600
0600
0E00
0B00
1300
3F00
2300
4300
E780
ENDCHAR

STARTCHAR Acircumflex
ENCODING 194
SWIDTH 667 0
DWIDTH 9 0
BBX 9 13 0 0
BITMAP
0300
0D80
0000
0200
0600
0600
0E00
0B00
1300
3F00
2300
4300
E780
ENDCHAR

STARTCHAR Atilde
ENCODING 195
SWIDTH 667 0
DWIDTH 9 0
BBX 9 13 0 0
BITMAP
0680
0B00
0000
0200
0600
0600
0E00
0B00
1300
3F00
2300
4300
E780
ENDCHAR

STARTCHAR Adieresis
ENCODING 196
SWIDTH 667 0
DWIDTH 9 0
BBX 9 13 0 0
BITMAP
0D80
0D80
0000
0200
0600
0600
0E00
0B00
1300
3F00
2300
4300
E780
ENDCHAR

STARTCHAR Aring
ENCODING 197
SWIDTH 667 0
DWIDTH 9 0
BBX 9 14 0 0
BITMAP
0700
0500
0700
0000
0200
0600
0600
0E00
0B00
1300
3F00
2300
4300
E780
ENDCHAR

STARTCHAR AE
ENCODING 198
SWIDTH 944 0
DWIDTH 13 0
BBX 14 10 0 0
BITMAP
07FC
0388
0788
0990
09F0
1F20
1320
2308
4710
E7F0
ENDCHAR

STARTCHAR Ccedilla
ENCODING 199
SWIDTH 667 0
DWIDTH 9 0
BBX 9 14 0 -4
BITMAP
1F80
3980
7080
6080
C000
C000
C000
C100
6200
3C00
1000
1800
0800
3800
ENDCHAR

STARTCHAR Egrave
ENCODING 200
SWIDTH 667 0
DWIDTH 9 0
BBX 9 14 0 0
BITMAP
0400
0600
0100
0000
3F80
1880
1880
3300
3E00
3200
3200
6180
6100
FF00
ENDCHAR

STARTCHAR Eacute
ENCODING 201
SWIDTH 667 0
DWIDTH 9 0
BBX 9 14 0 0
BITMAP
0100
0300
0400
0000
3F80
1880
1880
3300
3E00
3200
3200
6180
6100
FF00
ENDCHAR

STARTCHAR Ecircumflex
ENCODING 202
SWIDTH 667 0
DWIDTH 9 0
BBX 9 13 0 0
BITMAP
0300
0D80
0000
3F80
1880
1880
3300
3E00
3200
3200
6180
6100
FF00
ENDCHAR

STARTCHAR Edieresis
ENCODING 203
SWIDTH 667 0
DWIDTH 9 0
BBX 9 13 0 0
BITMAP
0D80
0D80
0000
3F80
1880
1880
3300
3E00
3200
3200
6180
6100
FF00
ENDCHAR

STARTCHAR Igrave
ENCODING 204
SWIDTH 389 0
DWIDTH 5 0
BBX 6 14 0 0
BITMAP
10
18
04
00
3C
18
18
30
30
30
30
60
60
F0
ENDCHAR

STARTCHAR Iacute
ENCODING 205
SWIDTH 389 0
DWIDTH 5 0
BBX 6 14 0 0
BITMAP
04
0C
10
00
3C
18
18
30
30
30
30
60
60
F0
ENDCHAR

STARTCHAR Icircumflex
ENCODING 206
SWIDTH 389 0
DWIDTH 5 0
BBX 7 13 0 0
BITMAP
0C
36
00
3C
18
18
30
30
30
30
60
60
F0
ENDCHAR

STARTCHAR Idieresis
ENCODING 207
SWIDTH 389 0
DWIDTH 5 0
BBX 7 13 0 0
BITMAP
36
36
00
3C
18
18
30
30
30
30
60
60
F0
ENDCHAR

STARTCHAR Eth
ENCODING 208
SWIDTH 722 0
DWIDTH 10 0
BBX 10 10 0 0
BITMAP
3F00
19C0
18C0
30C0
7CC0
30C0
31C0
6180
6300
FC00
ENDCHAR

STARTCHAR Ntilde
ENCODING 209
SWIDTH 722 0
DWIDTH 10 0
BBX 11 13 0 0
BITMAP
0340
0580
0000
38E0
1840
2C40
2C40
2680
6680
4680
4300
C300
E100
ENDCHAR

STARTCHAR Ograve
ENCODING 210
SWIDTH 722 0
DWIDTH 10 0
BBX 9 14 0 0
BITMAP
0800
0C00
0200
0000
0F00
3180
7180
6180
E180
C180
C300
C300
C600
7800
ENDCHAR

STARTCHAR Oacute
ENCODING 211
SWIDTH 722 0
DWIDTH 10 0
BBX 9 14 0 0
BITMAP
0100
0300
0400
0000
0F00
3180
7180
6180
E180
C180
C300
C300
C600
7800
ENDCHAR

STARTCHAR Ocircumflex
ENCODING 212
SWIDTH 722 0
DWIDTH 10 0
BBX 9 13 0 0
BITMAP
0300
0D80
0000
0F00
3180
7180
6180
E180
C180
C300
C300
C600
7800
ENDCHAR

STARTCHAR Otilde
ENCODING 213
SWIDTH 722 0
DWIDTH 10 0
BBX 9 13 0 0
BITMAP
0680
0B00
0000
0F00
3180
7180
6180
E180
C180
C300
C300
C600
7800
ENDCHAR

STARTCHAR Odieresis
ENCODING 214
SWIDTH 722 0
DWIDTH 10 0
BBX 9 13 0 0
BITMAP
0D80
0D80
0000
0F00
3180
7180
6180
E180
C180
C300
C300
C600
7800
ENDCHAR

STARTCHAR multiply
ENCODING 215
SWIDTH 570 0
DWIDTH 8 0
BBX 6 6 1 0
BITMAP
C4
6C
38
38
6C
C4
ENDCHAR

STARTCHAR Oslash
ENCODING 216
SWIDTH 722 0
DWIDTH 10 0
BBX 9 11 0 0
BITMAP
0180
0F00
3380
7780
6580
E980
C980
D300
F300
E600
7800
ENDCHAR

STARTCHAR Ugrave
ENCODING 217
SWIDTH 722 0
DWIDTH 10 0
BBX 9 14 1 0
BITMAP
0800
0C00
0200
0000
F980
7080
6100
6100
6100
C200
C200
C200
C400
7800
ENDCHAR

STARTCHAR Uacute
ENCODING 218
SWIDTH 722 0
DWIDTH 10 0
BBX 9 14 1 0
BITMAP
0100
0300
0400
0000
F980
7080
6100
6100
6100
C200
C200
C200
C400
7800
ENDCHAR

STARTCHAR Ucircumflex
ENCODING 219
SWIDTH 722 0
DWIDTH 10 0
BBX 9 13 1 0
BITMAP
0600
1B00
0000
F980
7080
6100
6100
6100
C200
C200
C200
C400
7800
ENDCHAR

STARTCHAR Udieresis
ENCODING 220
SWIDTH 722 0
DWIDTH 10 0
BBX 9 13 1 0
BITMAP
1B00
1B00
0000
F980
7080
6100
6100
6100
C200
C200
C200
C400
7800
ENDCHAR

STARTCHAR Yacute
ENCODING 221
SWIDTH 611 0
DWIDTH 9 0
BBX 8 14 1 0
BITMAP
02
06
08
00
F7
62
64
3C
38
30
30
30
60
F0
ENDCHAR

STARTCHAR Thorn
ENCODING 222
SWIDTH 611 0
DWIDTH 9 0
BBX 8 10 0 0
BITMAP
3C
18
1F
3B
33
33
3E
60
60
F0
ENDCHAR

STARTCHAR germandbls
ENCODING 223
SWIDTH 500 0
DWIDTH 7 0
BBX 9 13 -1 -3
BITMAP
0380
0480
0D80
0F80
0900
0980
1980
1980
1B00
1600
3000
B000
E000
ENDCHAR

STARTCHAR agrave
ENCODING 224
SWIDTH 500 0
DWIDTH 7 0
BBX 7 11 0 0
BITMAP
10
18
04
00
3E
6C
6C
CC
C8
DE
EC
ENDCHAR

STARTCHAR aacute
ENCODING 225
SWIDTH 500 0
DWIDTH 7 0
BBX 7 11 0 0
BITMAP
04
0C
10
00
3E
6C
6C
CC
C8
DE
EC
ENDCHAR

STARTCHAR acircumflex
ENCODING 226
SWIDTH 500 0
DWIDTH 7 0
BBX 7 10 0 0
BITMAP
0C
36
00
3E
6C
6C
CC
C8
DE
EC
ENDCHAR

STARTCHAR atilde
ENCODING 227
SWIDTH 500 0
DWIDTH 7 0
BBX 7 10 0 0
BITMAP
1A
2C
00
3E
6C
6C
CC
C8
DE
EC
ENDCHAR

STARTCHAR adieresis
ENCODING 228
SWIDTH 500 0
DWIDTH 7 0
BBX 7 10 0 0
BITMAP
36
36
00
3E
6C
6C
CC
C8
DE
EC
ENDCHAR

STARTCHAR aring
ENCODING 229
SWIDTH 500 0
DWIDTH 7 0
BBX 7 11 0 0
BITMAP
1C
14
1C
00
3E
6C
6C
CC
C8
DE
EC
ENDCHAR

STARTCHAR ae
ENCODING 230
SWIDTH 722 0
DWIDTH 10 0
BBX 9 7 0 0
BITMAP
3F80
6680
6580
CD00
CE00
DC80
E700
ENDCHAR

STARTCHAR ccedilla
ENCODING 231
SWIDTH 444 0
DWIDTH 6 0
BBX 6 11 0 -4
BITMAP
38
6C
40
C0
C0
C8
70
20
30
10
70
ENDCHAR

STARTCHAR egrave
ENCODING 232
SWIDTH 444 0
DWIDTH 6 0
BBX 5 11 0 0
BITMAP
20
30
08
00
38
68
58
D0
E0
C8
70
ENDCHAR

STARTCHAR eacute
ENCODING 233
SWIDTH 444 0
DWIDTH 6 0
BBX 6 11 0 0
BITMAP
04
0C
10
00
38
68
58
D0
E0
C8
70
ENDCHAR

STARTCHAR ecircumflex
ENCODING 234
SWIDTH 444 0
DWIDTH 6 0
BBX 6 10 0 0
BITMAP
18
6C
00
38
68
58
D0
E0
C8
70
ENDCHAR

STARTCHAR edieresis
ENCODING 235
SWIDTH 444 0
DWIDTH 6 0
BBX 7 10 0 0
BITMAP
36
36
00
38
68
58
D0
E0
C8
70
ENDCHAR

STARTCHAR igrave
ENCODING 236
SWIDTH 278 0
DWIDTH 4 0
BBX 4 11 0 0
BITMAP
40
60
10
00
E0
60
40
40
C0
F0
E0
ENDCHAR

STARTCHAR iacute
ENCODING 237
SWIDTH 278 0
DWIDTH 4 0
BBX 5 11 0 0
BITMAP
08
18
20
00
E0
60
40
40
C0
F0
E0
ENDCHAR

STARTCHAR icircumflex
ENCODING 238
SWIDTH 278 0
DWIDTH 4 0
BBX 5 10 0 0
BITMAP
30
D8
00
E0
60
40
40
C0
F0
E0
ENDCHAR

STARTCHAR idieresis
ENCODING 239
SWIDTH 278 0
DWIDTH 4 0
BBX 5 10 0 0
BITMAP
D8
D8
00
E0
60
40
40
C0
F0
E0
ENDCHAR

STARTCHAR eth
ENCODING 240
SWIDTH 500 0
DWIDTH 7 0
BBX 6 10 0 0
BITMAP
24
38
0C
3C
6C
4C
CC
CC
D8
70
ENDCHAR

STARTCHAR ntilde
ENCODING 241
SWIDTH 556 0
DWIDTH 8 0
BBX 7 10 0 0
BITMAP
1A
2C
00
6C
76
64
6C
4C
CA
CC
ENDCHAR

STARTCHAR ograve
ENCODING 242
SWIDTH 500 0
DWIDTH 7 0
BBX 6 11 0 0
BITMAP
20
30
08
00
38
6C
4C
CC
CC
D8
70
ENDCHAR

STARTCHAR oacute
ENCODING 243
SWIDTH 500 0
DWIDTH 7 0
BBX 6 11 0 0
BITMAP
04
0C
10
00
38
6C
4C
CC
CC
D8
70
ENDCHAR

STARTCHAR ocircumflex
ENCODING 244
SWIDTH 500 0
DWIDTH 7 0
BBX 7 10 0 0
BITMAP
0C
36
00
38
6C
4C
CC
CC
D8
70
ENDCHAR

STARTCHAR otilde
ENCODING 245
SWIDTH 500 0
DWIDTH 7 0
BBX 7 10 0 0
BITMAP
1A
2C
00
38
6C
4C
CC
CC
D8
70
ENDCHAR

STARTCHAR odieresis
ENCODING 246
SWIDTH 500 0
DWIDTH 7 0
BBX 7 10 0 0
BITMAP
36
36
00
38
6C
4C
CC
CC
D8
70
ENDCHAR

STARTCHAR divide
ENCODING 247
SWIDTH 570 0
DWIDTH 8 0
BBX 6 7 1 0
BITMAP
30
30
00
FC
00
30
30
ENDCHAR

STARTCHAR oslash
ENCODING 248
SWIDTH 500 0
DWIDTH 7 0
BBX 7 8 0 0
BITMAP
06
3C
6C
5C
DC
EC
F8
70
ENDCHAR

STARTCHAR ugrave
ENCODING 249
SWIDTH 556 0
DWIDTH 8 0
BBX 7 11 1 0
BITMAP
10
18
04
00
E6
64
4C
4C
DC
DE
FC
ENDCHAR

STARTCHAR uacute
ENCODING 250
SWIDTH 556 0
DWIDTH 8 0
BBX 7 11 1 0
BITMAP
04
0C
10
00
E6
64
4C
4C
DC
DE
FC
ENDCHAR

STARTCHAR ucircumflex
ENCODING 251
SWIDTH 556 0
DWIDTH 8 0
BBX 7 10 1 0
BITMAP
0C
36
00
E6
64
4C
4C
DC
DE
FC
ENDCHAR

STARTCHAR udieresis
ENCODING 252
SWIDTH 556 0
DWIDTH 8 0
BBX 7 10 1 0
BITMAP
36
36
00
E6
64
4C
4C
DC
DE
FC
ENDCHAR

STARTCHAR yacute
ENCODING 253
SWIDTH 444 0
DWIDTH 6 0
BBX 7 14 0 -3
BITMAP
02
06
08
00
36
32
34
14
1C
18
18
10
90
E0
ENDCHAR

STARTCHAR thorn
ENCODING 254
SWIDTH 500 0
DWIDTH 7 0
BBX 8 13 0 -3
BITMAP
18
08
18
1E
1F
13
33
36
24
78
60
60
E0
ENDCHAR

STARTCHAR ydieresis
ENCODING 255
SWIDTH 444 0
DWIDTH 6 0
BBX 8 13 0 -3
BITMAP
1B
1B
00
36
32
34
14
1C
18
18
10
90
E0
ENDCHAR
ENDFONT
